<?xml version="1.0" encoding="UTF-8" standalone="no"?>
<!-- Created with Inkscape (http://www.inkscape.org/) -->

<svg
   xmlns:dc="http://purl.org/dc/elements/1.1/"
   xmlns:cc="http://creativecommons.org/ns#"
   xmlns:rdf="http://www.w3.org/1999/02/22-rdf-syntax-ns#"
   xmlns:svg="http://www.w3.org/2000/svg"
   xmlns="http://www.w3.org/2000/svg"
   xmlns:sodipodi="http://sodipodi.sourceforge.net/DTD/sodipodi-0.dtd"
   xmlns:inkscape="http://www.inkscape.org/namespaces/inkscape"
   width="200mm"
   height="250mm"
   viewBox="0 0 200 250"
   version="1.1"
   id="svg12571"
   inkscape:version="0.92.3 (2405546, 2018-03-11)"
   sodipodi:docname="cel.svg">
  <defs
     id="defs12565" />
  <sodipodi:namedview
     id="base"
     pagecolor="#ffffff"
     bordercolor="#666666"
     borderopacity="1.0"
     inkscape:pageopacity="0.0"
     inkscape:pageshadow="2"
     inkscape:zoom="0.49497475"
     inkscape:cx="544.98663"
     inkscape:cy="420.2034"
     inkscape:document-units="mm"
     inkscape:current-layer="layer1"
     showgrid="false"
     inkscape:window-width="1920"
     inkscape:window-height="1017"
     inkscape:window-x="1272"
     inkscape:window-y="-8"
     inkscape:window-maximized="1"
     fit-margin-top="0"
     fit-margin-left="0"
     fit-margin-right="0"
     fit-margin-bottom="0" />
  <metadata
     id="metadata12568">
    <rdf:RDF>
      <cc:Work
         rdf:about="">
        <dc:format>image/svg+xml</dc:format>
        <dc:type
           rdf:resource="http://purl.org/dc/dcmitype/StillImage" />
        <dc:title></dc:title>
      </cc:Work>
    </rdf:RDF>
  </metadata>
  <g
     inkscape:label="Capa 1"
     inkscape:groupmode="layer"
     id="layer1"
     transform="translate(-40.588043,-20.863594)">
    <g
       id="g13281"
       transform="translate(30.854908,7.3340759)">
      <rect
         ry="10.86749"
         y="16.165924"
         x="45.321178"
         height="244.72719"
         width="128.82391"
         id="rect13122"
         style="opacity:1;fill:#000000;fill-opacity:1;stroke:none;stroke-width:0.18095288;stroke-linecap:round;stroke-linejoin:round;stroke-miterlimit:4;stroke-dasharray:none;stroke-opacity:1" />
      <g
         transform="translate(0.13363476)"
         id="g13145">
        <rect
           style="opacity:1;fill:#666666;fill-opacity:1;stroke:none;stroke-width:0.08564103;stroke-linecap:round;stroke-linejoin:round;stroke-miterlimit:4;stroke-dasharray:none;stroke-opacity:1"
           id="rect13126"
           width="15.119048"
           height="15.119048"
           x="102.03998"
           y="239.16963"
           ry="2.2707703"
           rx="2.2707703" />
        <rect
           style="opacity:1;fill:#000000;fill-opacity:1;stroke:none;stroke-width:0.07118911;stroke-linecap:round;stroke-linejoin:round;stroke-miterlimit:4;stroke-dasharray:none;stroke-opacity:1"
           id="rect13126-5"
           width="12.567709"
           height="12.567709"
           x="103.31565"
           y="240.44531"
           ry="1.8875779"
           rx="1.8875779" />
      </g>
      <rect
         ry="0.2702657"
         y="26.822618"
         x="53.79266"
         height="205.99702"
         width="111.125"
         id="rect13124"
         style="opacity:1;fill:#ffffff;fill-opacity:1;stroke:none;stroke-width:0.16571122;stroke-linecap:round;stroke-linejoin:round;stroke-miterlimit:4;stroke-dasharray:none;stroke-opacity:1" />
      <rect
         ry="0.16206375"
         y="220.08185"
         x="53.806255"
         height="12.737796"
         width="111.11141"
         id="rect13179"
         style="opacity:1;fill:#000000;fill-opacity:1;stroke:none;stroke-width:0.12931927;stroke-linecap:round;stroke-linejoin:round;stroke-miterlimit:4;stroke-dasharray:none;stroke-opacity:1" />
      <circle
         r="2.8737028"
         cy="226.45074"
         cx="109.36195"
         id="path13239"
         style="opacity:1;fill:#000000;fill-opacity:1;stroke:#ffffff;stroke-width:0.7172516;stroke-linecap:round;stroke-linejoin:round;stroke-miterlimit:4;stroke-dasharray:none;stroke-opacity:1" />
      <path
         inkscape:connector-curvature="0"
         id="rect13126-59"
         d="m 128.89911,223.2398 c -0.28975,0 -0.52307,0.23332 -0.52307,0.52307 v 5.37597 c 0,0.28975 0.23332,0.52285 0.52307,0.52285 h 5.37598 c 0.28974,0 0.52306,-0.2331 0.52306,-0.52285 v -5.37597 c 0,-0.28975 -0.23332,-0.52307 -0.52306,-0.52307 z m 0.37908,0.54194 h 4.61782 c 0.19958,0 0.3602,0.16062 0.3602,0.3602 v 4.61783 c 0,0.19958 -0.16062,0.3602 -0.3602,0.3602 h -4.61782 c -0.19959,0 -0.3602,-0.16062 -0.3602,-0.3602 v -4.61783 c 0,-0.19958 0.16061,-0.3602 0.3602,-0.3602 z"
         style="opacity:1;fill:#ffffff;fill-opacity:1;stroke:none;stroke-width:0.03637662;stroke-linecap:round;stroke-linejoin:round;stroke-miterlimit:4;stroke-dasharray:none;stroke-opacity:1" />
      <path
         inkscape:connector-curvature="0"
         id="path13217"
         d="m 89.784445,223.19578 c -0.0318,9e-4 -0.0627,0.01 -0.0902,0.0255 l -2.652975,1.53187 -2.653135,1.5317 c -0.12757,0.0737 -0.12757,0.25784 0,0.33152 l 2.653135,1.5317 2.652975,1.53186 c 0.12762,0.0737 0.28712,-0.0184 0.28709,-0.1658 v -3.06359 -3.06345 c 4e-5,-0.1079 -0.089,-0.19451 -0.19693,-0.19139 z m -0.448937,0.86156 c 0.0793,-0.003 0.1449,0.0614 0.14487,0.14079 v 2.25378 2.25386 c 2e-5,0.1084 -0.11733,0.1762 -0.21122,0.122 l -1.951788,-1.12698 -1.951881,-1.12691 c -0.0938,-0.0542 -0.0938,-0.18965 0,-0.24386 l 1.951881,-1.12686 1.951788,-1.12702 c 0.0202,-0.0116 0.043,-0.0181 0.0664,-0.0188 z"
         style="color:#000000;font-style:normal;font-variant:normal;font-weight:normal;font-stretch:normal;font-size:medium;line-height:normal;font-family:sans-serif;font-variant-ligatures:normal;font-variant-position:normal;font-variant-caps:normal;font-variant-numeric:normal;font-variant-alternates:normal;font-feature-settings:normal;text-indent:0;text-align:start;text-decoration:none;text-decoration-line:none;text-decoration-style:solid;text-decoration-color:#000000;letter-spacing:normal;word-spacing:normal;text-transform:none;writing-mode:lr-tb;direction:ltr;text-orientation:mixed;dominant-baseline:auto;baseline-shift:baseline;text-anchor:start;white-space:normal;shape-padding:0;clip-rule:nonzero;display:inline;overflow:visible;visibility:visible;opacity:1;isolation:auto;mix-blend-mode:normal;color-interpolation:sRGB;color-interpolation-filters:linearRGB;solid-color:#000000;solid-opacity:1;vector-effect:none;fill:#ffffff;fill-opacity:1;fill-rule:nonzero;stroke:none;stroke-width:0.38278043;stroke-linecap:round;stroke-linejoin:round;stroke-miterlimit:4;stroke-dasharray:none;stroke-dashoffset:0;stroke-opacity:1;color-rendering:auto;image-rendering:auto;shape-rendering:auto;text-rendering:auto;enable-background:accumulate" />
    </g>
  </g>
</svg>
